<svg version="1.1" id="Layer_1" xmlns="http://www.w3.org/2000/svg" xmlns:xlink="http://www.w3.org/1999/xlink" x="0px" y="0px"
	 width="100%" viewBox="0 0 225 225" enable-background="new 0 0 225 225" xml:space="preserve">
<path fill="#DF8530" opacity="1.000000" stroke="none" 
	d="
M142.000000,0.999999 
	C144.370560,1.000000 146.741104,1.000000 149.574524,1.416966 
	C149.154510,3.979151 148.271652,6.124369 147.098694,8.974452 
	C152.539017,8.974452 157.467957,8.602470 162.312500,9.082360 
	C166.870636,9.533876 171.944885,9.476764 175.611710,14.127493 
	C171.393524,15.495961 167.990082,16.600115 164.586624,17.704268 
	C164.514267,18.222940 164.441925,18.741611 164.369583,19.260284 
	C184.719727,29.439833 199.709213,44.140324 206.440186,67.744644 
	C202.316406,66.438721 199.427444,65.523842 196.391693,64.562477 
	C199.685196,73.473518 203.167984,81.193939 205.344131,89.266594 
	C207.493011,97.238098 207.947098,105.567871 206.603607,115.024269 
	C203.622833,112.208344 201.770676,110.458603 198.825363,107.676178 
	C199.195953,115.133026 199.959000,120.899170 199.630829,126.602524 
	C199.307968,132.213745 197.878143,137.761276 196.934036,143.336746 
	C196.300430,143.316315 195.666824,143.295868 195.033234,143.275436 
	C193.788391,140.767899 192.543549,138.260376 191.298706,135.752853 
	C190.814560,135.824661 190.330429,135.896454 189.846298,135.968246 
	C188.018631,149.445572 185.605423,162.721237 178.617065,174.421280 
	C178.108673,174.321167 177.600266,174.221054 177.091858,174.120926 
	C176.366516,171.785614 175.641174,169.450302 174.915833,167.114990 
	C174.395279,166.955582 173.874725,166.796188 173.354156,166.636780 
	C170.261795,175.034317 167.591217,183.713058 160.219177,189.655609 
	C159.004776,187.771088 158.186325,186.501038 157.241211,185.034393 
	C153.084854,190.241714 149.229156,195.072342 145.373459,199.902969 
	C144.910385,199.603134 144.447311,199.303299 143.984238,199.003479 
	C143.658783,195.498428 143.333344,191.993378 143.007904,188.488327 
	C140.445160,192.704376 139.176941,197.001511 137.252686,200.981445 
	C135.303345,205.013214 132.705383,208.731369 129.735336,213.680313 
	C128.337616,210.067734 127.596848,208.153137 126.583351,205.533646 
	C122.371063,212.976242 118.685532,219.488113 115.000000,226.000000 
	C114.250000,226.000000 113.500000,226.000000 112.376183,225.651505 
	C108.219841,219.023163 104.437317,212.743332 100.117302,205.571121 
	C99.277611,208.208130 98.683868,210.072739 97.711510,213.126389 
	C90.672546,205.696167 87.719902,197.113113 85.136963,188.314331 
	C84.693329,188.456177 84.249687,188.598007 83.806053,188.739853 
	C83.513519,192.212570 83.220978,195.685287 82.928436,199.158020 
	C82.444969,199.373093 81.961502,199.588165 81.478035,199.803238 
	C77.606209,194.946793 73.734375,190.090363 69.608032,184.914688 
	C68.596352,186.792862 67.929573,188.030746 66.957756,189.834930 
	C59.265694,183.745422 56.778965,174.911514 53.567657,166.559677 
	C53.070961,166.766113 52.574261,166.972565 52.077560,167.179001 
	C51.266678,169.569168 50.455791,171.959335 49.227112,175.580994 
	C41.133045,162.614975 39.229671,149.145584 36.929123,135.813660 
	C36.384007,135.875946 35.838890,135.938232 35.293774,136.000519 
	C34.196217,138.448990 33.098656,140.897476 32.001099,143.345947 
	C31.321161,143.304245 30.641222,143.262527 29.961283,143.220810 
	C29.045519,137.601791 27.665667,132.009186 27.343750,126.356331 
	C27.018049,120.636986 27.739496,114.857994 28.002251,109.105133 
	C27.535973,108.987503 27.069695,108.869865 26.603416,108.752235 
	C24.888073,110.547539 23.172729,112.342850 20.734615,114.894623 
	C20.253159,112.725861 19.778746,111.539207 19.756531,110.344154 
	C19.486012,95.791412 21.674400,81.811737 29.398006,69.104507 
	C30.069151,68.000298 30.074600,66.491486 30.389267,65.170609 
	C29.056229,65.383713 27.713699,65.550613 26.392633,65.821999 
	C24.861238,66.136589 23.348700,66.542969 21.827972,66.909500 
	C21.966467,65.209717 21.725235,63.367435 22.301476,61.831928 
	C28.963261,44.080250 40.977551,31.022503 57.560242,22.025330 
	C59.219357,21.125156 60.792740,20.066969 62.405910,19.082117 
	C62.387768,18.613077 62.369629,18.144037 62.351490,17.674999 
	C58.817184,16.533934 55.282879,15.392869 50.593746,13.878963 
	C60.223186,7.118656 70.223579,9.559529 79.556458,8.894303 
	C78.547012,5.777149 77.773506,3.388574 77.000000,1.000000 
	C79.370560,1.000000 81.741112,1.000000 84.680328,1.372450 
	C96.368919,3.223257 106.353241,7.007948 113.604935,16.946466 
	C119.023315,9.370142 125.754456,5.379328 133.677582,3.263046 
	C136.455063,2.521178 139.226044,1.755048 142.000000,0.999999 
M113.504944,173.006424 
	C122.027428,173.019562 128.917267,169.529770 134.646210,163.355591 
	C135.541031,162.391235 136.962906,161.469406 138.217178,161.353821 
	C151.588074,160.121628 159.262817,154.062012 161.042389,140.707825 
	C162.055786,133.103195 160.350266,125.136223 159.869095,117.332420 
	C160.179169,115.604568 161.897537,114.034767 163.537231,112.386696 
	C170.300201,105.589119 176.326111,98.325676 178.053925,88.477318 
	C183.326157,58.426155 157.439072,32.423512 126.410126,36.446762 
	C120.550621,37.206512 114.609177,37.618671 108.702034,37.657555 
	C100.607521,37.710838 92.390984,36.256931 84.435547,37.203621 
	C60.910328,40.003101 42.244053,68.968384 49.685551,91.531563 
	C51.932262,98.343765 56.730217,104.735611 61.671551,110.114777 
	C66.239189,115.087135 70.066765,119.144669 66.059235,126.045441 
	C65.586235,126.859917 65.637131,127.981850 65.458755,128.963730 
	C62.281380,146.454178 71.341721,158.617462 89.411232,161.301666 
	C90.509689,161.464859 91.614746,162.516037 92.444061,163.407639 
	C97.908653,169.282639 104.468086,172.776764 113.504944,173.006424 
z"/>
<path fill="#FDFDFD" opacity="1.000000" stroke="none" 
	d="
M115.468658,226.000000 
	C118.685532,219.488113 122.371063,212.976242 126.583351,205.533646 
	C127.596848,208.153137 128.337616,210.067734 129.735336,213.680313 
	C132.705383,208.731369 135.303345,205.013214 137.252686,200.981445 
	C139.176941,197.001511 140.445160,192.704376 143.007904,188.488327 
	C143.333344,191.993378 143.658783,195.498428 143.984238,199.003479 
	C144.447311,199.303299 144.910385,199.603134 145.373459,199.902969 
	C149.229156,195.072342 153.084854,190.241714 157.241211,185.034393 
	C158.186325,186.501038 159.004776,187.771088 160.219177,189.655609 
	C167.591217,183.713058 170.261795,175.034317 173.354156,166.636780 
	C173.874725,166.796188 174.395279,166.955582 174.915833,167.114990 
	C175.641174,169.450302 176.366516,171.785614 177.091858,174.120926 
	C177.600266,174.221054 178.108673,174.321167 178.617065,174.421280 
	C185.605423,162.721237 188.018631,149.445572 189.846298,135.968246 
	C190.330429,135.896454 190.814560,135.824661 191.298706,135.752853 
	C192.543549,138.260376 193.788391,140.767899 195.033234,143.275436 
	C195.666824,143.295868 196.300430,143.316315 196.934036,143.336746 
	C197.878143,137.761276 199.307968,132.213745 199.630829,126.602524 
	C199.959000,120.899170 199.195953,115.133026 198.825363,107.676178 
	C201.770676,110.458603 203.622833,112.208344 206.603607,115.024269 
	C207.947098,105.567871 207.493011,97.238098 205.344131,89.266594 
	C203.167984,81.193939 199.685196,73.473518 196.391693,64.562477 
	C199.427444,65.523842 202.316406,66.438721 206.440186,67.744644 
	C199.709213,44.140324 184.719727,29.439833 164.369583,19.260284 
	C164.441925,18.741611 164.514267,18.222940 164.586624,17.704268 
	C167.990082,16.600115 171.393524,15.495961 175.611710,14.127493 
	C171.944885,9.476764 166.870636,9.533876 162.312500,9.082360 
	C157.467957,8.602470 152.539017,8.974452 147.098694,8.974452 
	C148.271652,6.124369 149.154510,3.979151 150.018692,1.416966 
	C175.306412,1.000000 200.612808,1.000000 225.959610,1.000000 
	C225.959610,75.893341 225.959610,150.786697 225.959610,226.000000 
	C189.313065,226.000000 152.625183,226.000000 115.468658,226.000000 
z"/>
<path fill="#FDFDFD" opacity="1.000000" stroke="none" 
	d="
M76.531342,1.000000 
	C77.773506,3.388574 78.547012,5.777149 79.556458,8.894303 
	C70.223579,9.559529 60.223186,7.118656 50.593746,13.878963 
	C55.282879,15.392869 58.817184,16.533934 62.351490,17.674999 
	C62.369629,18.144037 62.387768,18.613077 62.405910,19.082117 
	C60.792740,20.066969 59.219357,21.125156 57.560242,22.025330 
	C40.977551,31.022503 28.963261,44.080250 22.301476,61.831928 
	C21.725235,63.367435 21.966467,65.209717 21.827972,66.909500 
	C23.348700,66.542969 24.861238,66.136589 26.392633,65.821999 
	C27.713699,65.550613 29.056229,65.383713 30.389267,65.170609 
	C30.074600,66.491486 30.069151,68.000298 29.398006,69.104507 
	C21.674400,81.811737 19.486012,95.791412 19.756531,110.344154 
	C19.778746,111.539207 20.253159,112.725861 20.734615,114.894623 
	C23.172729,112.342850 24.888073,110.547539 26.603416,108.752235 
	C27.069695,108.869865 27.535973,108.987503 28.002251,109.105133 
	C27.739496,114.857994 27.018049,120.636986 27.343750,126.356331 
	C27.665667,132.009186 29.045519,137.601791 29.961283,143.220810 
	C30.641222,143.262527 31.321161,143.304245 32.001099,143.345947 
	C33.098656,140.897476 34.196217,138.448990 35.293774,136.000519 
	C35.838890,135.938232 36.384007,135.875946 36.929123,135.813660 
	C39.229671,149.145584 41.133045,162.614975 49.227112,175.580994 
	C50.455791,171.959335 51.266678,169.569168 52.077560,167.179001 
	C52.574261,166.972565 53.070961,166.766113 53.567657,166.559677 
	C56.778965,174.911514 59.265694,183.745422 66.957756,189.834930 
	C67.929573,188.030746 68.596352,186.792862 69.608032,184.914688 
	C73.734375,190.090363 77.606209,194.946793 81.478035,199.803238 
	C81.961502,199.588165 82.444969,199.373093 82.928436,199.158020 
	C83.220978,195.685287 83.513519,192.212570 83.806053,188.739853 
	C84.249687,188.598007 84.693329,188.456177 85.136963,188.314331 
	C87.719902,197.113113 90.672546,205.696167 97.711510,213.126389 
	C98.683868,210.072739 99.277611,208.208130 100.117302,205.571121 
	C104.437317,212.743332 108.219841,219.023163 112.001183,225.651505 
	C75.039314,226.000000 38.078629,226.000000 1.058973,226.000000 
	C1.058973,151.119049 1.058973,76.238037 1.058973,1.000000 
	C26.019762,1.000000 51.041222,1.000000 76.531342,1.000000 
z"/>
<path fill="#DF8530" opacity="1.000000" stroke="none" 
	d="
M141.531342,0.999999 
	C139.226044,1.755048 136.455063,2.521178 133.677582,3.263046 
	C125.754456,5.379328 119.023315,9.370142 113.604935,16.946466 
	C106.353241,7.007948 96.368919,3.223257 85.124496,1.372450 
	C103.687561,1.000000 122.375122,1.000000 141.531342,0.999999 
z"/>
<path fill="#EDEDED" opacity="1.000000" stroke="none" 
	d="
M113.055008,173.000336 
	C104.468086,172.776764 97.908653,169.282639 92.444061,163.407639 
	C91.614746,162.516037 90.509689,161.464859 89.411232,161.301666 
	C71.341721,158.617462 62.281380,146.454178 65.458755,128.963730 
	C65.637131,127.981850 65.586235,126.859917 66.059235,126.045441 
	C70.066765,119.144669 66.239189,115.087135 61.671551,110.114777 
	C56.730217,104.735611 51.932262,98.343765 49.685551,91.531563 
	C42.244053,68.968384 60.910328,40.003101 84.435547,37.203621 
	C92.390984,36.256931 100.607521,37.710838 108.702034,37.657555 
	C114.609177,37.618671 120.550621,37.206512 126.410126,36.446762 
	C157.439072,32.423512 183.326157,58.426155 178.053925,88.477318 
	C176.326111,98.325676 170.300201,105.589119 163.537231,112.386696 
	C161.897537,114.034767 160.179169,115.604568 159.869095,117.332420 
	C160.350266,125.136223 162.055786,133.103195 161.042389,140.707825 
	C159.262817,154.062012 151.588074,160.121628 138.217178,161.353821 
	C136.962906,161.469406 135.541031,162.391235 134.646210,163.355591 
	C128.917267,169.529770 122.027428,173.019562 113.055008,173.000336 
M85.025063,42.035442 
	C69.871704,44.798176 60.866859,54.220753 55.984318,68.403458 
	C50.999046,82.884567 53.372982,95.569992 64.428764,106.406197 
	C67.868851,109.777962 71.313461,113.145103 74.867477,116.623466 
	C70.880531,124.541397 68.843613,132.633972 70.857468,141.313187 
	C73.489624,152.657074 85.741470,158.097809 95.918808,152.517548 
	C100.795982,149.843369 105.727753,147.268799 111.332481,144.276642 
	C110.754204,143.412704 110.219017,141.580231 109.130104,141.150345 
	C100.692482,137.819412 96.432266,130.547104 92.623734,123.206688 
	C91.485947,121.013763 92.053787,116.584892 93.643410,114.706291 
	C95.245834,112.812546 99.618088,111.402924 101.855354,112.240997 
	C109.816040,115.223038 117.242897,115.240791 125.177475,112.192665 
	C127.326271,111.367195 131.299774,112.640854 133.102768,114.353958 
	C134.721298,115.891808 135.746536,119.894089 134.885849,121.877029 
	C131.483887,129.714828 126.749374,136.715530 118.762001,140.885727 
	C117.379234,141.607666 116.546127,143.382385 115.667488,144.423859 
	C121.039246,147.069443 125.418060,149.000931 129.582108,151.318298 
	C142.923111,158.742813 156.511719,151.614334 156.709503,136.377655 
	C156.795151,129.778946 154.624130,123.150948 153.301331,115.515495 
	C156.078659,112.781273 159.963303,109.148354 163.632187,105.309227 
	C174.732437,93.693878 175.685806,80.348083 170.091263,65.964355 
	C164.607986,51.866688 154.670212,42.517010 139.375076,41.928848 
	C122.741905,41.289238 106.034012,43.173275 89.360367,41.577377 
	C88.222206,41.468441 87.043816,41.779903 85.025063,42.035442 
M124.425613,165.174683 
	C127.280571,162.760788 130.135529,160.346878 133.185455,157.768143 
	C118.106339,148.389359 106.683022,148.464600 94.510338,157.566757 
	C101.630859,167.809143 111.913483,170.617630 124.425613,165.174683 
M105.630211,133.031723 
	C111.987099,138.102814 116.674698,138.040039 122.180725,132.146729 
	C124.984833,129.145370 127.226021,125.557358 129.340118,122.007317 
	C130.016632,120.871300 129.967453,118.709435 129.297867,117.583214 
	C128.881332,116.882622 126.451988,116.721481 125.312744,117.213554 
	C117.373550,120.642784 109.571121,120.697273 101.634232,117.199898 
	C100.508003,116.703621 98.081604,116.884148 97.656723,117.591827 
	C96.984383,118.711662 96.925117,120.892136 97.610100,122.007248 
	C99.857361,125.665672 102.556824,129.046326 105.630211,133.031723 
z"/>
<path fill="#DF8530" opacity="1.000000" stroke="none" 
	d="
M85.454597,41.965649 
	C87.043816,41.779903 88.222206,41.468441 89.360367,41.577377 
	C106.034012,43.173275 122.741905,41.289238 139.375076,41.928848 
	C154.670212,42.517010 164.607986,51.866688 170.091263,65.964355 
	C175.685806,80.348083 174.732437,93.693878 163.632187,105.309227 
	C159.963303,109.148354 156.078659,112.781273 153.301331,115.515495 
	C154.624130,123.150948 156.795151,129.778946 156.709503,136.377655 
	C156.511719,151.614334 142.923111,158.742813 129.582108,151.318298 
	C125.418060,149.000931 121.039246,147.069443 115.667488,144.423859 
	C116.546127,143.382385 117.379234,141.607666 118.762001,140.885727 
	C126.749374,136.715530 131.483887,129.714828 134.885849,121.877029 
	C135.746536,119.894089 134.721298,115.891808 133.102768,114.353958 
	C131.299774,112.640854 127.326271,111.367195 125.177475,112.192665 
	C117.242897,115.240791 109.816040,115.223038 101.855354,112.240997 
	C99.618088,111.402924 95.245834,112.812546 93.643410,114.706291 
	C92.053787,116.584892 91.485947,121.013763 92.623734,123.206688 
	C96.432266,130.547104 100.692482,137.819412 109.130104,141.150345 
	C110.219017,141.580231 110.754204,143.412704 111.332481,144.276642 
	C105.727753,147.268799 100.795982,149.843369 95.918808,152.517548 
	C85.741470,158.097809 73.489624,152.657074 70.857468,141.313187 
	C68.843613,132.633972 70.880531,124.541397 74.867477,116.623466 
	C71.313461,113.145103 67.868851,109.777962 64.428764,106.406197 
	C53.372982,95.569992 50.999046,82.884567 55.984318,68.403458 
	C60.866859,54.220753 69.871704,44.798176 85.454597,41.965649 
M77.208336,85.109650 
	C82.575600,88.359383 87.942856,91.609116 93.393852,94.909554 
	C95.942642,88.917816 94.986969,82.221001 91.560966,78.917023 
	C87.607513,75.104370 77.148369,73.288582 72.965302,75.525154 
	C74.274529,78.513931 75.571594,81.474930 77.208336,85.109650 
M137.962540,77.302505 
	C132.269196,81.316559 130.551208,87.215309 133.075119,94.083595 
	C148.440308,89.030052 148.440308,89.030052 154.613556,73.765594 
	C148.725693,74.966110 143.699509,75.990929 137.962540,77.302505 
z"/>
<path fill="#DF8530" opacity="1.000000" stroke="none" 
	d="
M124.096947,165.366302 
	C111.913483,170.617630 101.630859,167.809143 94.510338,157.566757 
	C106.683022,148.464600 118.106339,148.389359 133.185455,157.768143 
	C130.135529,160.346878 127.280571,162.760788 124.096947,165.366302 
z"/>
<path fill="#DF8530" opacity="1.000000" stroke="none" 
	d="
M105.356354,132.782730 
	C102.556824,129.046326 99.857361,125.665672 97.610100,122.007248 
	C96.925117,120.892136 96.984383,118.711662 97.656723,117.591827 
	C98.081604,116.884148 100.508003,116.703621 101.634232,117.199898 
	C109.571121,120.697273 117.373550,120.642784 125.312744,117.213554 
	C126.451988,116.721481 128.881332,116.882622 129.297867,117.583214 
	C129.967453,118.709435 130.016632,120.871300 129.340118,122.007317 
	C127.226021,125.557358 124.984833,129.145370 122.180725,132.146729 
	C116.674698,138.040039 111.987099,138.102814 105.356354,132.782730 
z"/>
<path fill="#F2F2F2" opacity="1.000000" stroke="none" 
	d="
M77.038498,84.772781 
	C75.571594,81.474930 74.274529,78.513931 72.965302,75.525154 
	C77.148369,73.288582 87.607513,75.104370 91.560966,78.917023 
	C94.986969,82.221001 95.942642,88.917816 93.393852,94.909554 
	C87.942856,91.609116 82.575600,88.359383 77.038498,84.772781 
z"/>
<path fill="#F5F5F5" opacity="1.000000" stroke="none" 
	d="
M138.317932,77.159126 
	C143.699509,75.990929 148.725693,74.966110 154.613556,73.765594 
	C148.440308,89.030052 148.440308,89.030052 133.075119,94.083595 
	C130.551208,87.215309 132.269196,81.316559 138.317932,77.159126 
z"/>
</svg>